<svg aria-hidden="true" width="516" height="163.2" viewBox="0 0 516 163.2" xmlns="http://www.w3.org/2000/svg" xml:space="preserve">
                <title>Marketplace</title>
                <path class="marketplace-logo" d="M0,0v119.6h516v-3V0H0z M6,6h504l0,107.6H6V6z M82.5,42.6l5.7,33.6c0.1,0.7-0.4,1.1-1,1.1h-5.9 c-0.5,0-0.9-0.4-1-0.8l-2.3-15.5H78l-8.4,16.2c-0.1,0.3-0.6,0.5-0.9,0.5h-0.9c-0.3,0-0.7-0.2-0.9-0.5l-8.5-16.2h-0.1l-2.2,15.5 c-0.1,0.4-0.5,0.8-1,0.8h-5.9c-0.6,0-1.1-0.4-1-1.1L54,42.6c0-0.4,0.5-0.8,0.9-0.8h0.8c0.3,0,0.7,0.2,0.9,0.5l11.6,21.6h0.1 l11.6-21.6c0.1-0.3,0.6-0.5,0.9-0.5h0.8C82,41.8,82.4,42.1,82.5,42.6z M116.1,42.3c-0.1-0.3-0.5-0.6-0.9-0.6h-0.5 c-0.4,0-0.7,0.3-0.9,0.6L98.2,76c-0.3,0.7,0.1,1.3,0.9,1.3h5.5c1,0,1.6-0.6,1.8-1.2l1.8-4h13.6l1.8,4c0.5,1,0.9,1.3,1.8,1.3h5.6 c0.8,0,1.2-0.7,0.9-1.3L116.1,42.3z M111.2,65.3l3.8-8.3h0.1l3.8,8.3H111.2z M169,53.1c0-6-4.9-10.8-10.9-10.8h-15c-0.6,0-1,0.5-1,1 v33.1c0,0.5,0.4,0.9,1,0.9h6c0.5,0,1-0.4,1-0.9V63.6h3.5l6.7,13.3c0.1,0.2,0.4,0.4,0.8,0.4h6.7c0.9,0,1.2-0.8,0.9-1.5l-6.9-12.7 C166,61.4,169,57.7,169,53.1z M157.5,57.3h-7.4v-7.8h7.4c2.1,0,3.8,1.7,3.8,3.8C161.3,55.4,159.5,57.3,157.5,57.3z M212,75.4 c0.6,0.8,0,1.9-1,1.9h-6.9c-0.4,0-0.8-0.2-0.9-0.4l-11.6-15.7v14.9c0,0.7-0.6,1.2-1.2,1.2h-5.9c-0.7,0-1.2-0.6-1.2-1.2V43.5 c0-0.7,0.5-1.2,1.2-1.2h5.9c0.7,0,1.2,0.6,1.2,1.2v13.2l11.1-13.9c0.2-0.2,0.7-0.5,1-0.5h6.3c1,0,1.5,1.1,0.9,1.9l-11.7,14.7 L212,75.4z M247.6,43.2v5.5c0,0.5-0.4,1-1,1h-13.9v6.2h11.4c0.5,0,1,0.4,1,1v5.5c0,0.6-0.5,1-1,1h-11.4V70h13.9c0.6,0,1,0.4,1,0.9 v5.5c0,0.5-0.4,0.9-1,0.9h-20.7c-0.6,0-1-0.4-1-0.9V43.2c0-0.5,0.4-1,1-1h20.7C247.2,42.3,247.6,42.7,247.6,43.2z M283.8,43.2v5.5 c0,0.5-0.4,1-1,1h-7.2v26.7c0,0.5-0.4,0.9-1,0.9h-6c-0.5,0-0.9-0.4-0.9-0.9V49.6h-7.2c-0.5,0-1-0.5-1-1v-5.5c0-0.5,0.4-1,1-1h22.2 C283.4,42.3,283.8,42.7,283.8,43.2z M309.6,42.3h-12.1c-0.5,0-0.9,0.5-0.9,1v33.1c0,0.5,0.4,0.9,0.9,0.9h5.9c0.5,0,1-0.4,1-0.9V64.6 h5.3c6.1,0,11.2-5.1,11.2-11.3C320.8,47.3,315.7,42.3,309.6,42.3z M309.1,57.3h-4.8v-7.7h4.8c2.2,0,4,1.6,4,3.7 C313.1,55.6,311.3,57.3,309.1,57.3z M352.6,70.9v5.5c0,0.5-0.4,0.9-0.9,0.9h-18.8c-0.5,0-0.9-0.4-0.9-0.9V43.2c0-0.5,0.4-1,0.9-1h6 c0.5,0,1,0.5,1,1V70h11.9C352.2,70,352.6,70.4,352.6,70.9z M380.3,42.3c-0.1-0.3-0.5-0.6-0.9-0.6h-0.5c-0.4,0-0.7,0.3-0.9,0.6 L362.4,76c-0.3,0.7,0.1,1.3,0.9,1.3h5.5c1,0,1.6-0.6,1.8-1.2l1.8-4H386l1.8,4c0.4,1,0.9,1.3,1.8,1.3h5.6c0.8,0,1.2-0.7,0.9-1.3 L380.3,42.3z M375.4,65.3l3.8-8.3h0.1l3.8,8.3H375.4z M410.9,59.7c0,5.6,4.2,10.2,9.9,10.2c2.4,0,4.9-0.9,6.7-2.4 c0.4-0.3,1-0.3,1.3,0.1l3.9,4.2c0.4,0.4,0.3,1-0.1,1.4c-3.4,3.3-7.7,4.9-12.2,4.9c-10,0-18.1-8-18.1-18c0-10,8.1-18.1,18.1-18.1 c5,0,8.7,1.6,12.1,4.7c0.4,0.4,0.4,1,0,1.4l-3.9,4.1c-0.4,0.4-0.9,0.4-1.3,0c-1.9-1.7-4.3-2.6-6.8-2.6 C415.1,49.3,410.9,54.1,410.9,59.7z M452.8,49.6v6.2h11.4c0.5,0,0.9,0.4,0.9,1v5.5c0,0.6-0.4,1-0.9,1h-11.4V70h13.9 c0.6,0,1,0.4,1,0.9v5.5c0,0.5-0.4,0.9-1,0.9H446c-0.5,0-0.9-0.4-0.9-0.9V43.2c0-0.5,0.4-1,0.9-1h20.7c0.6,0,1,0.5,1,1v5.5 c0,0.5-0.4,1-1,1H452.8z M186.1,155.1c1-0.5,2.4-1.8,2.4-3.5c0-2.3-2-4.1-4.6-4.1h-5c-0.2,0-0.4,0.2-0.4,0.4v14.6 c0,0.2,0.2,0.4,0.4,0.4h5.3c2.7,0,4.8-1.8,4.8-4.3C189,156.7,187.3,155.5,186.1,155.1z M181.3,150.1h2.4c1.1,0,1.9,0.8,1.9,1.9 c0,1.1-0.8,2-1.9,2h-2.4V150.1z M183.9,160.3h-2.7v-3.9h2.4c1.1,0,2.2,0.8,2.2,1.9C185.9,159.5,185,160.3,183.9,160.3z M206.2,148.2 l-5.1,7.3v7c0,0.2-0.2,0.4-0.4,0.4h-2c-0.2,0-0.4-0.2-0.4-0.4v-7l-5-7.4c-0.2-0.3,0-0.6,0.4-0.6h2.2l0.4,0.2l3.5,5.1l3.5-5.1 l0.4-0.2h2.3C206.2,147.5,206.3,147.9,206.2,148.2z M222.5,147.9v14.6c0,0.2-0.2,0.4-0.4,0.4h-2c-0.2,0-0.4-0.2-0.4-0.4v-14.6 c0-0.2,0.2-0.4,0.4-0.4h2C222.3,147.5,222.5,147.7,222.5,147.9z M242.8,147.9v14.8c0,0.2-0.2,0.4-0.4,0.4h-0.5l-9.2-10.1h0v9.5 c0,0.2-0.2,0.4-0.4,0.4h-2c-0.2,0-0.4-0.2-0.4-0.4v-14.8c0-0.2,0.2-0.4,0.4-0.4h0.6l9.2,9.7h0v-9.1c0-0.2,0.2-0.4,0.4-0.4h2 C242.6,147.5,242.8,147.7,242.8,147.9z M262.7,148.1l-6.8,14.8c-0.1,0.1-0.2,0.2-0.4,0.2h-0.2c-0.2,0-0.3-0.1-0.4-0.2l-6.8-14.8 c-0.1-0.3,0-0.6,0.4-0.6h2.2c0.2,0,0.3,0.1,0.4,0.2l4.2,9.5h0.2l4.2-9.5c0-0.1,0.2-0.2,0.4-0.2h2.2 C262.6,147.5,262.8,147.8,262.7,148.1z M270.9,147.9v14.6c0,0.2-0.2,0.4-0.4,0.4h-2c-0.2,0-0.4-0.2-0.4-0.4v-14.6 c0-0.2,0.2-0.4,0.4-0.4h2C270.7,147.5,270.9,147.7,270.9,147.9z M287.3,158.8c0,2.3-2,4.4-5.1,4.4c-2.8,0-4.4-1.3-4.8-1.7 c-0.2-0.2-0.3-0.3-0.1-0.7l0.8-1.4c0.2-0.3,0.6-0.3,0.7-0.2c0.1,0.1,1.9,1.4,3.3,1.4c1.1,0,2-0.7,2-1.7c0-1.1-0.9-1.9-2.8-2.6 c-2.1-0.8-4.1-2.2-4.1-4.8c0-2,1.5-4.2,5-4.2c2.2,0,4,1.1,4.4,1.5c0.2,0.1,0.3,0.5,0.1,0.7l-0.8,1.3c-0.2,0.3-0.5,0.4-0.8,0.3 c-0.2-0.1-1.8-1.2-3.1-1.2c-1.3,0-1.9,0.8-1.9,1.5c0,1,0.8,1.7,2.6,2.5C284.8,154.7,287.3,156,287.3,158.8z M296.3,147.9v14.6 c0,0.2-0.2,0.4-0.4,0.4h-2c-0.2,0-0.4-0.2-0.4-0.4v-14.6c0-0.2,0.2-0.4,0.4-0.4h2C296.1,147.5,296.3,147.7,296.3,147.9z  M310.4,147.3c-4.4,0-7.9,3.5-7.9,8c0,4.4,3.5,7.9,7.9,7.9c4.4,0,7.9-3.5,7.9-7.9C318.4,150.8,314.8,147.3,310.4,147.3z  M310.4,160.3c-2.8,0-5-2.3-5-5c0-2.8,2.3-5.1,5-5.1c2.8,0,5.1,2.3,5.1,5.1C315.5,158,313.2,160.3,310.4,160.3z M337.6,147.9v14.8 c0,0.2-0.2,0.4-0.4,0.4h-0.5l-9.2-10.1h0v9.5c0,0.2-0.2,0.4-0.4,0.4h-2c-0.2,0-0.4-0.2-0.4-0.4v-14.8c0-0.2,0.2-0.4,0.4-0.4h0.6 l9.2,9.7h0v-9.1c0-0.2,0.2-0.4,0.4-0.4h2C337.4,147.5,337.6,147.7,337.6,147.9z"/>
            </svg>