<svg width="73" height="73" viewBox="0 0 73 73" xmlns="http://www.w3.org/2000/svg">
            <title>Marketplace</title>
            <path style="fill: white;" d="M36.5,0C16.4,0,0,16.4,0,36.5C0,56.6,16.4,73,36.5,73S73,56.6,73,36.5C73,16.4,56.6,0,36.5,0z M36.5,71.8&#10;            c-19.4,0-35.3-15.8-35.3-35.3c0-19.4,15.8-35.3,35.3-35.3s35.3,15.8,35.3,35.3C71.8,55.9,55.9,71.8,36.5,71.8z M45.9,44.9l-1.7-7.7&#10;            l0-0.1h-2.9c0-0.2,0-0.3,0-0.5c0-0.2,0-0.5-0.1-0.7h12.8v1.2h-8.7l1.7,7.7c0,0.1,0,0.2-0.1,0.2c-0.1,0.1-0.1,0.1-0.2,0.1h-0.7&#10;            C46.1,45.1,46,45.1,45.9,44.9z M39.7,37.7c0.1-0.2,0.1-0.3,0.1-0.5c0.1-0.4,0.1-0.9,0-1.3c0-0.2-0.1-0.3-0.2-0.5&#10;            c-0.1-0.2-0.1-0.3-0.2-0.5c-0.1-0.2-0.3-0.4-0.5-0.6l-8.4-8.4c-0.1-0.1-0.2-0.1-0.3-0.1c-0.1,0-0.2,0.1-0.2,0.2l-2.2,10h-8.9v1.2&#10;            h8.7l0,0.1l-1.7,7.6c0,0.1,0,0.2,0.1,0.2c0.1,0.1,0.1,0.1,0.2,0.1h0.7c0.1,0,0.2-0.1,0.3-0.2l3.8-17.1l4.9,4.9l-1.6,1.6&#10;            c0,0-0.1,0.1-0.1,0.1h1.7l0.9-0.9l1.6,1.6c0.1,0.1,0.1,0.1,0.2,0.2c0.1,0.2,0.2,0.3,0.3,0.5l0,0.1h-8l-0.3,1.2h2.8l0,0.1&#10;            c0,0.2,0.1,0.3,0.1,0.5c0.1,0.2,0.1,0.3,0.2,0.5c0.2,0.3,0.4,0.6,0.6,0.9c0.6,0.6,1.5,1,2.4,1c0.9,0,1.8-0.3,2.4-1&#10;            c0.2-0.2,0.5-0.5,0.6-0.9C39.6,38,39.6,37.9,39.7,37.7z M38.6,37.2c0,0.2-0.1,0.4-0.2,0.5c-0.1,0.2-0.2,0.3-0.3,0.4&#10;            c0,0-0.1,0.1-0.1,0.1c-0.4,0.4-0.9,0.5-1.5,0.5c-0.6,0-1.1-0.2-1.5-0.5c0,0-0.1-0.1-0.1-0.1c-0.1-0.1-0.2-0.3-0.3-0.4&#10;            c-0.1-0.2-0.2-0.3-0.2-0.5l0-0.1h4.3L38.6,37.2z M37.6,30.8l5-5c0.1-0.1,0.2-0.1,0.3-0.1c0.1,0,0.2,0.1,0.2,0.2l1.9,8.5h-1.2&#10;            l-1.4-6.6l-3.8,3.8L37.6,30.8z M12.2,35.2l-5.1-0.6c0,0-0.1,0-0.1-0.1l0.4-3.1c0-0.1,0.1-0.1,0.1-0.1l0.6,0.1c0,0,0.1,0,0.1,0&#10;            c0,0,0,0,0,0.1l-0.3,2.3L9.4,34l0.2-2c0-0.1,0.1-0.1,0.1-0.1l0.6,0.1c0.1,0,0.1,0.1,0.1,0.1l-0.2,2l2,0.2c0.1,0,0.1,0.1,0.1,0.1&#10;            l-0.1,0.7C12.3,35.2,12.3,35.2,12.2,35.2C12.2,35.2,12.2,35.2,12.2,35.2z M10.5,29.1c1.4,0.6,3-0.1,3.6-1.5c0.3-0.7,0.3-1.4,0-2.1&#10;            c-0.3-0.7-0.8-1.2-1.5-1.5c-0.3-0.1-0.7-0.2-1-0.2c-0.4,0-0.7,0.1-1.1,0.2c-0.7,0.3-1.2,0.8-1.5,1.5c-0.3,0.7-0.3,1.4,0,2.1&#10;            C9.3,28.3,9.8,28.8,10.5,29.1z M9.8,25.8c0.2-0.5,0.5-0.8,1-1c0.5-0.2,1-0.2,1.4,0c0.5,0.2,0.8,0.5,1,1c0.2,0.5,0.2,1,0,1.4h0&#10;            c-0.3,0.7-1,1.1-1.7,1.1c-0.2,0-0.5,0-0.7-0.1C9.9,27.8,9.5,26.8,9.8,25.8z M16.3,22.9c0,0,0.1,0,0.1,0l0.4-0.6c0,0,0,0,0-0.1&#10;            s0-0.1,0-0.1L15.2,21l0.6-0.7l0,0l2.3,0.5c0,0,0,0,0.1,0l0.5-0.6c0,0,0-0.1,0-0.1c0,0,0-0.1-0.1-0.1h0l-2.3-0.4l0-0.1&#10;            c0.2-0.7,0-1.4-0.5-1.8c-0.3-0.2-0.6-0.3-1-0.3c-0.1,0-0.1,0-0.2,0c-0.4,0.1-0.8,0.3-1.1,0.6l-1.4,1.8c0,0,0,0.1,0,0.1L16.3,22.9z&#10;            M14.2,18.5c0.3-0.3,0.8-0.4,1.1-0.1c0.4,0.3,0.4,0.8,0.2,1.2l-0.8,1l-1.3-1L14.2,18.5z M23,16.2C23,16.2,23,16.2,23,16.2&#10;            c0.1,0.1,0.1,0.1,0.1,0l1.6-0.9c1.3-0.7,1.8-2.3,1.1-3.6c-0.5-0.9-1.4-1.4-2.3-1.4c-0.4,0-0.9,0.1-1.3,0.3l-1.6,0.9c0,0,0,0,0,0.1&#10;            c0,0,0,0.1,0,0.1L23,16.2z M22.5,11.5c0.4-0.2,0.9-0.3,1.4-0.2c0.4,0.1,0.8,0.5,1.1,0.9c0.2,0.4,0.3,0.9,0.2,1.4&#10;            c-0.1,0.5-0.4,0.8-0.9,1.1l-0.8,0.5l-1.8-3.2L22.5,11.5z M29.3,13.2l-1.2-5c0,0,0-0.1,0.1-0.1l3.1-0.7c0,0,0,0,0,0c0,0,0,0,0.1,0&#10;            c0,0,0,0,0,0.1l0.2,0.6c0,0,0,0.1-0.1,0.1l-2.3,0.6l0.3,1.3l1.9-0.5c0,0,0.1,0,0.1,0.1l0.2,0.6c0,0.1,0,0.1-0.1,0.1l-1.9,0.5&#10;            l0.3,1.4l2.3-0.6c0.1,0,0.1,0,0.1,0.1l0.1,0.6c0,0,0,0.1,0,0.1c0,0,0,0-0.1,0l-3.1,0.7C29.3,13.3,29.3,13.3,29.3,13.2z M34.7,8.3&#10;            c0-0.4,0.1-0.7,0.4-1c0.3-0.3,0.8-0.5,1.3-0.5c0,0,0,0,0,0c0.8,0,1.4,0.4,1.5,0.5c0,0,0,0,0,0.1c0,0,0,0.1,0,0.1L37.7,8&#10;            c0,0.1-0.1,0.1-0.2,0.1l0,0c-0.3-0.2-0.7-0.4-1.1-0.4c0,0,0,0,0,0c-0.5,0-0.7,0.3-0.7,0.6c0,0.4,0.3,0.6,1,0.9&#10;            c0.8,0.3,1.6,0.8,1.6,1.7c0,0.7-0.6,1.5-1.7,1.5c0,0,0,0,0,0c-1,0-1.6-0.5-1.7-0.6c-0.1-0.1-0.1-0.1,0-0.2l0.3-0.5&#10;            c0,0,0.1-0.1,0.1-0.1c0,0,0.1,0,0.1,0c0,0,0,0,0,0c0.5,0.3,0.9,0.5,1.2,0.5c0,0,0,0,0,0c0.4,0,0.8-0.3,0.8-0.7c0-0.4-0.3-0.7-1-1&#10;            C35.5,9.7,34.7,9.3,34.7,8.3z M40.6,12.6C40.6,12.6,40.6,12.6,40.6,12.6l0.9-5.1l0,0c0,0,0,0,0-0.1c0,0,0,0,0.1,0c0,0,0,0,0,0&#10;            l0.7,0.1c0.1,0,0.1,0.1,0.1,0.1l-1,5.1c0,0-0.1,0.1-0.1,0.1L40.6,12.6C40.6,12.6,40.6,12.6,40.6,12.6z M44.8,13&#10;            c-0.3-0.7-0.3-1.4,0-2.1c0.3-0.7,0.8-1.2,1.5-1.5c0.3-0.1,0.7-0.2,1-0.2c0.4,0,0.7,0.1,1.1,0.2c0.6,0.3,1.1,0.8,1.4,1.4&#10;            c0,0.1,0,0.1-0.1,0.1l-0.6,0.3c-0.1,0-0.1,0-0.1-0.1c-0.2-0.4-0.5-0.7-0.9-0.9c-0.4-0.2-0.9-0.2-1.4,0c-0.4,0.2-0.8,0.5-1,1&#10;            c-0.4,0.9,0,2,0.9,2.4c0.4,0.2,0.8,0.2,0.9,0.2l0,0l0.3-0.7l-0.6-0.3c-0.1,0-0.1-0.1-0.1-0.1l0.2-0.6c0,0,0,0,0.1-0.1&#10;            c0,0,0.1,0,0.1,0l1.4,0.6c0,0,0,0,0,0c0,0,0,0.1,0,0.1l-0.8,1.8c0,0,0,0.1-0.1,0.1c0,0-0.9,0.1-1.9-0.3C45.6,14.2,45.1,13.6,44.8,13&#10;            z M50.3,16.5c0,0,0-0.1,0-0.1l3.3-4c0,0,0,0,0.1,0c0,0,0.1,0,0.1,0l0.1,0.1l0.3,4.7l0,0l0.1,0l2.1-2.5c0,0,0,0,0.1,0&#10;            c0,0,0.1,0,0.1,0l0.6,0.5c0,0,0,0,0,0.1c0,0,0,0.1,0,0.1l-3.3,4c0,0,0,0-0.1,0c0,0-0.1,0-0.1,0l-0.1-0.1l-0.2-4.8l0,0l-0.1,0L51,17&#10;            c0,0,0,0-0.1,0c0,0-0.1,0-0.1,0L50.3,16.5z M57.5,24.1C57.5,24.1,57.4,24.1,57.5,24.1c-0.1,0-0.1,0-0.1,0l-1.8-2.6c0,0,0-0.1,0-0.1&#10;            c0,0,0,0,0-0.1l4.2-3c0,0,0,0,0.1,0c0,0,0.1,0,0.1,0l1.8,2.6c0,0.1,0,0.1,0,0.1l-0.5,0.4c0,0,0,0-0.1,0c0,0,0,0-0.1,0l-1.3-1.9&#10;            l-1.1,0.8l1.1,1.6c0,0,0,0,0,0.1c0,0,0,0.1,0,0.1l-0.5,0.4c-0.1,0-0.1,0-0.1,0l-1.1-1.6l-1.2,0.8l1.3,1.9c0,0,0,0,0,0.1&#10;            c0,0,0,0,0,0.1L57.5,24.1z M58.6,26.3C58.6,26.4,58.6,26.4,58.6,26.3l0.2,0.7c0,0,0,0,0.1,0.1c0,0,0.1,0,0.1,0l1.9-0.7l0.3,0.9&#10;            L59.6,29c0,0,0,0,0,0.1l0.3,0.8c0,0,0,0.1,0.1,0.1c0,0,0.1,0,0.1,0l1.5-1.7l0,0c0.5,0.6,1.2,0.8,1.8,0.5c0.4-0.2,0.7-0.5,0.9-0.9&#10;            c0.2-0.4,0.2-0.8,0-1.3l-0.8-2.1c0-0.1-0.1-0.1-0.1-0.1L58.6,26.3C58.6,26.3,58.6,26.3,58.6,26.3z M63.1,25.6l0.5,1.2&#10;            c0.2,0.4-0.1,0.9-0.5,1c-0.1,0-0.2,0.1-0.3,0.1c-0.1,0-0.2,0-0.3-0.1c-0.2-0.1-0.4-0.3-0.4-0.5l-0.5-1.2L63.1,25.6z M65.6,34.8&#10;            C65.6,34.8,65.6,34.8,65.6,34.8c-0.1,0.1-0.2,0.1-0.2,0.1L65,34.6c-0.1,0-0.1-0.1-0.1-0.1c0,0,0-0.1,0-0.1l0,0&#10;            c0.1-0.3,0.3-0.8,0.3-1.1c0-0.3-0.2-0.4-0.3-0.5c-0.1-0.1-0.3-0.2-0.4-0.1c-0.4,0-0.6,0.3-0.8,1c-0.2,0.8-0.6,1.7-1.5,1.8&#10;            c-0.4,0-0.8-0.1-1.1-0.3c-0.3-0.3-0.5-0.7-0.6-1.2c-0.1-1,0.3-1.6,0.4-1.7c0,0,0.1-0.1,0.1-0.1c0,0,0,0,0.1,0l0.5,0.2&#10;            c0,0,0.1,0.1,0.1,0.1c0,0,0,0.1,0,0.1l0,0c-0.3,0.5-0.4,0.9-0.3,1.2c0,0.2,0.1,0.4,0.2,0.5c0.1,0.1,0.3,0.2,0.5,0.2&#10;            c0.4,0,0.7-0.4,0.9-1.1c0.2-0.6,0.5-1.5,1.5-1.6c0.7-0.1,1.5,0.4,1.6,1.5C66,34,65.7,34.7,65.6,34.8z M65.3,42.7l-5-1.4&#10;            c0,0-0.1,0-0.1,0c0,0,0,0,0,0.1l-0.5,1.8c-0.2,0.9,0.2,1.8,1,2c0.7,0.2,1.2-0.3,1.4-0.6l0.1-0.1l0,0.1c0.1,0.4,0.4,1,0.9,1.1&#10;            c0.8,0.2,1.5-0.3,1.8-1.2l0.5-1.7C65.4,42.8,65.4,42.8,65.3,42.7C65.4,42.7,65.4,42.7,65.3,42.7z M62,43.7c-0.1,0.2-0.2,0.4-0.4,0.5&#10;            c-0.1,0.1-0.3,0.1-0.4,0.1c-0.1,0-0.1,0-0.2,0c-0.2-0.1-0.4-0.2-0.5-0.4c-0.1-0.2-0.1-0.4-0.1-0.6l0.3-1l1.4,0.4L62,43.7z&#10;            M64.2,44.2c-0.1,0.3-0.4,0.5-0.7,0.5c-0.1,0-0.1,0-0.2,0c-0.4-0.1-0.6-0.5-0.5-0.9L63,43l1.4,0.4L64.2,44.2z M63.3,49&#10;            C63.4,49,63.4,49,63.3,49l-0.4,0.8c0,0,0,0-0.1,0L60.7,50l-0.1,0l1,2c0,0,0,0.1,0,0.1l-0.4,0.7c0,0,0,0.1-0.1,0.1c0,0-0.1,0-0.1-0.1&#10;            L59.7,50l-2.2-1.2c0,0,0,0,0-0.1c0,0,0-0.1,0-0.1l0.4-0.6c0,0,0.1-0.1,0.1-0.1c0,0,0,0,0,0l2.2,1.2l0,0L63.3,49&#10;            C63.3,48.9,63.3,48.9,63.3,49z M56.4,58.3l-3.2-4c0,0,0,0-0.1,0c0,0,0,0,0,0c0,0,0,0-0.1,0l-1.4,1.1c-0.6,0.4-0.9,1.1-1,1.8&#10;            c-0.1,0.7,0.1,1.4,0.6,2c0.4,0.6,1.1,0.9,1.8,1c0.7,0.1,1.4-0.1,2-0.6l1.4-1.1C56.4,58.4,56.4,58.4,56.4,58.3&#10;            C56.4,58.3,56.4,58.3,56.4,58.3L56.4,58.3z M54.5,58.9c-0.3,0.3-0.7,0.4-1.1,0.4c-0.5,0-1-0.2-1.4-0.7c-0.6-0.8-0.5-1.9,0.3-2.6&#10;            l0.7-0.6l0,0l2.2,2.8L54.5,58.9z M49.5,63c0,0,0,0.1-0.1,0.1l-2.9,1.2c-0.1,0-0.1,0-0.1-0.1l-0.3-0.6c0,0,0-0.1,0.1-0.1l2.1-0.9l0,0&#10;            l-0.5-1.3L46,62.2c0,0-0.1,0-0.1-0.1l-0.3-0.6c0,0,0-0.1,0-0.1c0,0,0,0,0.1-0.1l1.8-0.8l0,0l-0.6-1.3l-2.2,0.9c-0.1,0-0.1,0-0.1-0.1&#10;            l-0.3-0.6c0,0,0-0.1,0-0.1c0,0,0,0,0.1-0.1l2.9-1.2c0,0,0.1,0,0.1,0c0,0,0,0,0.1,0.1L49.5,63z M43,64c0.1,0.4,0,0.7-0.2,1&#10;            c-0.2,0.4-0.7,0.6-1.2,0.7c-0.8,0.1-1.5-0.2-1.6-0.2c0,0,0,0-0.1-0.1c0,0,0-0.1,0-0.1l0.2-0.5c0-0.1,0.1-0.1,0.1-0.1c0,0,0,0,0,0&#10;            l0,0c0.3,0.1,0.8,0.3,1.2,0.2c0.5-0.1,0.7-0.4,0.6-0.7c-0.1-0.4-0.4-0.6-1.1-0.7c-0.8-0.2-1.7-0.5-1.9-1.4c-0.1-0.7,0.3-1.6,1.5-1.8&#10;            c1-0.2,1.6,0.2,1.8,0.3c0.1,0.1,0.1,0.1,0.1,0.2l-0.2,0.5c0,0,0,0.1-0.1,0.1c0,0-0.1,0-0.1,0c0,0,0,0,0,0c-0.5-0.2-0.9-0.3-1.2-0.3&#10;            c-0.2,0-0.4,0.2-0.5,0.3c-0.1,0.1-0.1,0.3-0.1,0.5c0.1,0.4,0.4,0.6,1.2,0.8C41.9,62.8,42.8,63.1,43,64z M36.5,60.8L36.4,66&#10;            c0,0,0,0,0,0.1c0,0,0,0-0.1,0c0,0,0,0,0,0l-0.7,0c0,0,0,0-0.1,0c0,0,0,0,0-0.1l0.1-5.2c0,0,0,0,0-0.1c0,0,0,0,0.1,0c0,0,0,0,0,0&#10;            l0.7,0C36.4,60.7,36.5,60.8,36.5,60.8z M32.5,63.2c-0.4,1.5-1.9,2.4-3.3,2c-0.6-0.2-1.2-0.6-1.6-1.1c0,0,0-0.1,0-0.1c0,0,0,0,0-0.1&#10;            l0.6-0.4c0.1,0,0.1,0,0.1,0c0.3,0.4,0.6,0.6,1.1,0.7c0.5,0.1,1,0,1.4-0.2c0.4-0.3,0.7-0.7,0.8-1.1c0.2-1-0.4-2-1.3-2.2&#10;            c-0.4-0.1-0.8-0.1-1,0l0,0L29,61.4l0.7,0.2c0.1,0,0.1,0.1,0.1,0.1l-0.1,0.6c0,0.1-0.1,0.1-0.1,0.1L28,62c0,0-0.1-0.1-0.1-0.1&#10;            l0.5-1.9c0,0,0-0.1,0.1-0.1c0,0,0.9-0.3,2,0C32,60.2,32.9,61.7,32.5,63.2z M26.2,58.5c0,0,0.1,0.1,0,0.1l-2.6,4.5c0,0-0.1,0.1-0.1,0&#10;            l-0.1-0.1l-1.1-4.6l0,0l-0.1,0l-1.6,2.8c0,0-0.1,0.1-0.1,0L19.8,61c0,0-0.1-0.1,0-0.1l2.6-4.5c0,0,0.1-0.1,0.1,0l0.1,0.1l1,4.7l0,0&#10;            l0.1,0l1.7-2.9c0,0,0,0,0.1,0c0,0,0.1,0,0.1,0L26.2,58.5z M20.2,54.6l-3.7,3.6c0,0-0.1,0-0.1,0L14.2,56c0,0,0,0,0-0.1&#10;            c0,0,0-0.1,0-0.1l0.5-0.4c0,0,0,0,0.1,0c0,0,0,0,0.1,0l1.6,1.7l1-1L16,54.7c0,0,0,0,0-0.1c0,0,0-0.1,0-0.1l0.5-0.5c0,0,0.1,0,0.1,0&#10;            l1.4,1.4l1-1l-1.6-1.7c0,0,0-0.1,0-0.1l0.5-0.4c0,0,0,0,0.1,0c0,0,0,0,0,0c0,0,0.1,0,0.1,0l2.2,2.3C20.3,54.5,20.3,54.5,20.2,54.6&#10;            C20.3,54.6,20.3,54.6,20.2,54.6z M16.4,50.1L16,49.5c0,0,0,0-0.1,0c0,0-0.1,0-0.1,0l-1.8,1l-0.5-0.8l1.3-2c0,0,0,0,0-0.1l-0.4-0.7&#10;            c0,0-0.1-0.1-0.1-0.1c0,0-0.1,0-0.1,0.1l-1.2,2l0,0c-0.3-0.3-0.7-0.4-1.1-0.4c-0.3,0-0.5,0.1-0.8,0.2c-0.4,0.2-0.6,0.6-0.8,1&#10;            c-0.1,0.4,0,0.9,0.2,1.2l1.1,1.9c0,0,0,0,0.1,0c0,0,0.1,0,0.1,0l4.5-2.6C16.4,50.2,16.4,50.2,16.4,50.1z M12.1,51.7l-0.7-1.1&#10;            c-0.1-0.2-0.1-0.4-0.1-0.6c0.1-0.2,0.2-0.4,0.4-0.5c0.2-0.1,0.4-0.1,0.6-0.1c0.2,0.1,0.4,0.2,0.5,0.4l0.7,1.1L12.1,51.7z M11,44&#10;            c-0.1,0.7-0.3,1.6-1.2,1.8c-0.7,0.2-1.5-0.1-1.9-1.2c-0.2-0.8,0-1.5,0.1-1.6c0,0,0-0.1,0.1-0.1c0,0,0,0,0.1,0c0,0,0,0,0,0l0.5,0.2&#10;            c0.1,0,0.2,0.1,0.1,0.2l0,0c-0.1,0.3-0.2,0.8-0.1,1.2c0.1,0.2,0.2,0.4,0.4,0.5C9.3,45,9.4,45,9.5,45c0.4-0.1,0.5-0.4,0.6-1.2&#10;            c0.1-0.8,0.3-1.7,1.2-2c0.4-0.1,0.8,0,1.1,0.2c0.4,0.2,0.7,0.6,0.8,1.1c0.3,1,0,1.6-0.1,1.8c0,0.1-0.1,0.1-0.2,0.1l-0.5-0.1&#10;            c0,0-0.1,0-0.1-0.1c0,0,0-0.1,0-0.1c0,0,0,0,0,0c0.2-0.5,0.2-1,0.1-1.3c-0.1-0.4-0.5-0.6-0.8-0.6C11.3,42.9,11.1,43.3,11,44z"/>
        </svg>