<svg class="btn-circle-twitter" xmlns="http://www.w3.org/2000/svg" viewBox="0 0 100 100" xml:space="preserve" width="38" height="38">
							<circle cx="50" cy="50" r="50"/>
							<path d="M71.3,39.4c-1.6,0.7-3.3,1.2-5,1.4c1.8-1.1,3.2-2.8,3.8-4.8c-1.7,1-3.6,1.7-5.6,2.1c-1.6-1.7-3.9-2.8-6.4-2.8 c-4.8,0-8.8,3.9-8.8,8.8c0,0.7,0.1,1.4,0.2,2c-7.3-0.4-13.7-3.9-18-9.1c-0.8,1.3-1.2,2.8-1.2,4.4c0,3,1.5,5.7,3.9,7.3 c-1.4,0-2.8-0.4-4-1.1c0,0,0,0.1,0,0.1c0,4.2,3,7.8,7,8.6c-0.7,0.2-1.5,0.3-2.3,0.3c-0.6,0-1.1-0.1-1.6-0.2c1.1,3.5,4.3,6,8.2,6.1 c-3,2.3-6.8,3.7-10.9,3.7c-0.7,0-1.4,0-2.1-0.1c3.9,2.5,8.5,3.9,13.4,3.9C58.2,70,67,56.7,67,45.1c0-0.4,0-0.8,0-1.1 C68.7,42.7,70.2,41.2,71.3,39.4L71.3,39.4z"/>
						</svg>