<svg class="btn-circle-linkedin" xmlns="http://www.w3.org/2000/svg" viewBox="0 0 100 100" xml:space="preserve" width="38" height="38">
							<circle cx="50" cy="50" r="50"/>
							<path d="M39.1,69.1V43.3h-8.6v25.8H39.1z M34.8,39.8c3,0,4.9-2,4.9-4.5c-0.1-2.5-1.9-4.5-4.8-4.5 c-2.9,0-4.9,1.9-4.9,4.5C30,37.8,31.9,39.8,34.8,39.8L34.8,39.8L34.8,39.8z M43.8,69.1h8.6V54.7c0-0.8,0.1-1.5,0.3-2.1 c0.6-1.5,2-3.1,4.4-3.1c3.1,0,4.3,2.4,4.3,5.8v13.8H70V54.3c0-7.9-4.2-11.6-9.9-11.6c-4.6,0-6.7,2.6-7.8,4.3h0.1v-3.7h-8.6 C43.9,45.7,43.8,69.1,43.8,69.1L43.8,69.1z"/>
						</svg>