<svg class="hero-logo-svg" aria-hidden="true" width="204" height="16" viewBox="0 0 794 66" xmlns="http://www.w3.org/2000/svg" xmlns:sketch="http://www.bohemiancoding.com/sketch/ns">
                    <title>Marketplace</title>
                    <g sketch:type="MSLayerGroup" fill="#000"><path d="M227.947 20.786c0-10.73-8.823-19.477-19.626-19.477h-26.917c-.991 0-1.711.812-1.711 1.713v59.693c0 .901.72 1.713 1.711 1.713h10.713c.9 0 1.71-.812 1.71-1.713v-22.994h6.212l11.973 23.895c.18.361.721.812 1.441.812h11.973c1.531 0 2.161-1.443 1.531-2.615l-12.334-22.903c7.832-3.156 13.324-9.829 13.324-18.124zm-20.796 7.484h-13.324v-14.067h13.324c3.691 0 6.842 3.066 6.842 6.853s-3.151 7.214-6.842 7.214z" sketch:type="MSShapeGroup"/><path d="M127.705 1.399c-.27-.541-.9-.992-1.53-.992h-.9c-.63 0-1.261.451-1.531.992l-28.178 60.684c-.54 1.173.18 2.345 1.531 2.345h9.903c1.8 0 2.79-1.082 3.241-2.164l3.24-7.214h24.487l3.241 7.124c.811 1.713 1.531 2.254 3.151 2.254h9.993c1.35 0 2.071-1.172 1.53-2.345l-28.178-60.684zm-8.822 41.388l6.752-14.878h.09l6.842 14.878h-13.684z" sketch:type="MSShapeGroup"/><path d="M61.483 1.85c-.09-.811-.901-1.443-1.621-1.443h-1.44c-.45 0-1.261.361-1.531.902l-20.886 38.953h-.18l-20.885-38.953c-.271-.541-1.081-.902-1.531-.902h-1.44c-.721 0-1.531.632-1.621 1.443l-10.173 60.594c-.18 1.172.63 1.984 1.711 1.984h10.623c.9 0 1.62-.722 1.71-1.443l3.961-27.862h.18l15.215 29.215c.27.541.99.992 1.53.992h1.621c.45 0 1.26-.451 1.53-.992l15.124-29.215h.18l4.051 27.862c.091.721.901 1.443 1.711 1.443h10.623c1.08 0 1.891-.812 1.711-1.984l-10.173-60.594" sketch:type="MSShapeGroup"/><path d="M284.666 31.065l21.066-26.42c.99-1.352.09-3.336-1.62-3.336h-11.344c-.54 0-1.35.451-1.71.902l-19.986 24.977v-23.715c0-1.172-.99-2.164-2.16-2.164h-10.534c-1.26 0-2.16.992-2.16 2.164v58.791c0 1.172.9 2.164 2.16 2.164h10.534c1.17 0 2.16-.992 2.16-2.164v-26.871l20.796 28.313c.18.271.99.632 1.621.632h12.423c1.71 0 2.701-1.984 1.71-3.337l-22.956-29.936" sketch:type="MSShapeGroup"/><path d="M494.694 1.309h-21.696c-.991 0-1.711.812-1.711 1.713v59.693c0 .901.72 1.713 1.711 1.713h10.623c.9 0 1.71-.812 1.71-1.713v-21.19h9.453c10.983 0 20.076-9.107 20.076-20.288 0-10.911-9.093-19.928-20.166-19.928zm-.81 27.051h-8.553v-13.796h8.553c3.871 0 7.112 2.885 7.112 6.673 0 4.057-3.241 7.123-7.112 7.123z" sketch:type="MSShapeGroup"/><path d="M373.224 1.309h-37.27c-.991 0-1.711.812-1.711 1.713v59.693c0 .901.72 1.713 1.711 1.713h37.27c.991 0 1.711-.812 1.711-1.713v-9.829c0-.902-.72-1.713-1.711-1.713h-24.937v-12.173h20.526c.9 0 1.71-.721 1.71-1.713v-9.829c0-.901-.81-1.713-1.71-1.713h-20.526v-11.181h24.937c.991 0 1.711-.812 1.711-1.713v-9.829c0-.901-.72-1.713-1.711-1.713" sketch:type="MSShapeGroup"/><path d="M706.712 14.023c4.411 0 8.823 1.623 12.154 4.599.63.631 1.62.631 2.25 0l7.022-7.304c.72-.722.72-1.804-.09-2.525-6.121-5.59-12.783-8.386-21.786-8.386-18.005 0-32.499 14.518-32.499 32.552s14.494 32.371 32.499 32.371c8.012 0 15.755-2.796 21.876-8.747.631-.631.72-1.803.09-2.435l-7.022-7.484c-.54-.631-1.71-.631-2.34-.09-3.241 2.796-7.833 4.328-12.064 4.328-10.173 0-17.735-8.295-17.735-18.304 0-10.099 7.472-18.575 17.645-18.575" sketch:type="MSShapeGroup"/><path d="M791.359 14.564c.99 0 1.711-.812 1.711-1.713v-9.829c0-.901-.721-1.713-1.711-1.713h-37.27c-.991 0-1.711.812-1.711 1.713v59.693c0 .901.72 1.713 1.711 1.713h37.27c.99 0 1.711-.812 1.711-1.713v-9.829c0-.902-.721-1.713-1.711-1.713h-24.937v-12.173h20.526c.9 0 1.71-.721 1.71-1.713v-9.829c0-.901-.81-1.713-1.71-1.713h-20.526v-11.181h24.937" sketch:type="MSShapeGroup"/><path d="M631.868 1.399c-.27-.541-.9-.992-1.53-.992h-.901c-.63 0-1.26.451-1.53.992l-28.178 60.684c-.54 1.173.18 2.345 1.531 2.345h9.902c1.801 0 2.791-1.082 3.241-2.164l3.241-7.214h24.487l3.241 7.124c.81 1.713 1.531 2.254 3.151 2.254h9.993c1.35 0 2.07-1.172 1.53-2.345l-28.178-60.684zm-8.822 41.388l6.752-14.878h.09l6.842 14.878h-13.684z" sketch:type="MSShapeGroup"/><path d="M442.967 1.309h-39.971c-.991 0-1.711.812-1.711 1.713v9.829c0 .901.72 1.713 1.711 1.713h12.873v48.151c0 .901.811 1.713 1.711 1.713h10.803c.9 0 1.71-.812 1.71-1.713v-48.151h12.874c.99 0 1.71-.812 1.71-1.713v-9.829c0-.901-.72-1.713-1.71-1.713" sketch:type="MSShapeGroup"/><path d="M575.37 51.173h-21.426v-48.151c0-.901-.81-1.713-1.711-1.713h-10.713c-.99 0-1.71.812-1.71 1.713v59.693c0 .901.72 1.713 1.71 1.713h33.85c.99 0 1.71-.812 1.71-1.713v-9.829c0-.902-.72-1.713-1.71-1.713" sketch:type="MSShapeGroup"/></g>
                </svg>